<mxfile host="65bd71144e">
    <diagram id="T_PJMS-xfhEBK5G41jR8" name="Page-1">
        <mxGraphModel dx="832" dy="475" grid="1" gridSize="10" guides="1" tooltips="1" connect="1" arrows="1" fold="1" page="1" pageScale="1" pageWidth="827" pageHeight="1169" math="0" shadow="0">
            <root>
                <mxCell id="0"/>
                <mxCell id="1" parent="0"/>
                <mxCell id="2" value="&lt;b&gt;&lt;font style=&quot;font-size: 18px;&quot;&gt;Online Shoe&lt;br&gt;&amp;nbsp;Store&lt;/font&gt;&lt;/b&gt;" style="shape=ellipse;html=1;dashed=0;whitespace=wrap;aspect=fixed;perimeter=ellipsePerimeter;strokeWidth=3;" parent="1" vertex="1">
                    <mxGeometry x="312.5" y="380" width="160" height="160" as="geometry"/>
                </mxCell>
                <mxCell id="6" value="&lt;b&gt;Payment&amp;nbsp;&lt;br&gt;Management&lt;/b&gt;" style="html=1;dashed=0;whitespace=wrap;strokeWidth=3;fontSize=18;" parent="1" vertex="1">
                    <mxGeometry x="31" y="380.5" width="160" height="65" as="geometry"/>
                </mxCell>
                <mxCell id="7" value="&lt;b&gt;Shoe &lt;br&gt;Management&lt;/b&gt;" style="html=1;dashed=0;whitespace=wrap;strokeWidth=3;fontSize=18;" parent="1" vertex="1">
                    <mxGeometry x="30" y="213" width="160" height="65" as="geometry"/>
                </mxCell>
                <mxCell id="8" value="&lt;b&gt;Shopping Cart &lt;br&gt;Management&lt;/b&gt;" style="html=1;dashed=0;whitespace=wrap;strokeWidth=3;fontSize=18;" parent="1" vertex="1">
                    <mxGeometry x="30" y="297" width="160" height="65" as="geometry"/>
                </mxCell>
                <mxCell id="15" value="&lt;b&gt;Order&amp;nbsp;&lt;br&gt;Management&lt;br&gt;&lt;/b&gt;" style="html=1;dashed=0;whitespace=wrap;strokeWidth=3;fontSize=18;" parent="1" vertex="1">
                    <mxGeometry x="32" y="463" width="160" height="65" as="geometry"/>
                </mxCell>
                <mxCell id="17" value="&lt;b&gt;Login &lt;br&gt;Management&lt;/b&gt;" style="html=1;dashed=0;whitespace=wrap;strokeWidth=3;fontSize=18;" parent="1" vertex="1">
                    <mxGeometry x="32" y="542" width="160" height="65" as="geometry"/>
                </mxCell>
                <mxCell id="19" value="&lt;b&gt;Shoe &lt;br&gt;Management&lt;/b&gt;" style="html=1;dashed=0;whitespace=wrap;strokeWidth=3;fontSize=18;" parent="1" vertex="1">
                    <mxGeometry x="30" y="212" width="160" height="65" as="geometry"/>
                </mxCell>
                <mxCell id="20" value="&lt;b&gt;Shopping Cart &lt;br&gt;Management&lt;/b&gt;" style="html=1;dashed=0;whitespace=wrap;strokeWidth=3;fontSize=18;" parent="1" vertex="1">
                    <mxGeometry x="30" y="296" width="160" height="65" as="geometry"/>
                </mxCell>
                <mxCell id="21" value="&lt;b&gt;Payment&amp;nbsp;&lt;br&gt;Management&lt;/b&gt;" style="html=1;dashed=0;whitespace=wrap;strokeWidth=3;fontSize=18;" parent="1" vertex="1">
                    <mxGeometry x="31" y="379.5" width="160" height="65" as="geometry"/>
                </mxCell>
                <mxCell id="22" value="&lt;b&gt;Order&amp;nbsp;&lt;br&gt;Management&lt;br&gt;&lt;/b&gt;" style="html=1;dashed=0;whitespace=wrap;strokeWidth=3;fontSize=18;" parent="1" vertex="1">
                    <mxGeometry x="32" y="462" width="160" height="65" as="geometry"/>
                </mxCell>
                <mxCell id="27" value="&lt;b&gt;System User &lt;br&gt;Management&lt;/b&gt;" style="html=1;dashed=0;whitespace=wrap;strokeWidth=3;fontSize=18;" parent="1" vertex="1">
                    <mxGeometry x="32" y="630" width="160" height="65" as="geometry"/>
                </mxCell>
                <mxCell id="28" value="&lt;b&gt;Generate &lt;br&gt;Order Report&lt;/b&gt;" style="html=1;dashed=0;whitespace=wrap;strokeWidth=3;fontSize=18;" parent="1" vertex="1">
                    <mxGeometry x="620" y="460" width="160" height="65" as="geometry"/>
                </mxCell>
                <mxCell id="29" value="&lt;b&gt;Check&amp;nbsp;&lt;br&gt;User Login Details&lt;/b&gt;" style="html=1;dashed=0;whitespace=wrap;strokeWidth=3;fontSize=18;" parent="1" vertex="1">
                    <mxGeometry x="620" y="540" width="180" height="65" as="geometry"/>
                </mxCell>
                <mxCell id="31" value="&lt;b&gt;Generate&lt;br&gt;System User Reportt&lt;/b&gt;" style="html=1;dashed=0;whitespace=wrap;strokeWidth=3;fontSize=18;" parent="1" vertex="1">
                    <mxGeometry x="615" y="650" width="185" height="65" as="geometry"/>
                </mxCell>
                <mxCell id="32" value="&lt;b&gt;Generate &lt;br&gt;Shoe Report&lt;/b&gt;" style="html=1;dashed=0;whitespace=wrap;strokeWidth=3;fontSize=18;" parent="1" vertex="1">
                    <mxGeometry x="620" y="212" width="185" height="65" as="geometry"/>
                </mxCell>
                <mxCell id="33" value="&lt;b&gt;Generate &lt;br&gt;Shopping Cart&amp;nbsp;&lt;br&gt;Report&lt;br&gt;&lt;/b&gt;" style="html=1;dashed=0;whitespace=wrap;strokeWidth=3;fontSize=18;" parent="1" vertex="1">
                    <mxGeometry x="620" y="296" width="185" height="65" as="geometry"/>
                </mxCell>
                <mxCell id="34" value="&lt;b&gt;Generate &lt;br&gt;Payment Report&lt;/b&gt;" style="html=1;dashed=0;whitespace=wrap;strokeWidth=3;fontSize=18;" parent="1" vertex="1">
                    <mxGeometry x="620" y="370" width="185" height="65" as="geometry"/>
                </mxCell>
                <mxCell id="35" value="&lt;b&gt;Generate &lt;br&gt;Order Report&lt;/b&gt;" style="html=1;dashed=0;whitespace=wrap;strokeWidth=3;fontSize=18;" parent="1" vertex="1">
                    <mxGeometry x="620" y="460" width="185" height="65" as="geometry"/>
                </mxCell>
                <mxCell id="40" value="" style="endArrow=classic;html=1;exitX=1;exitY=0.5;exitDx=0;exitDy=0;entryX=0;entryY=0;entryDx=0;entryDy=0;" parent="1" source="19" target="2" edge="1">
                    <mxGeometry width="50" height="50" relative="1" as="geometry">
                        <mxPoint x="60" y="510" as="sourcePoint"/>
                        <mxPoint x="110" y="460" as="targetPoint"/>
                    </mxGeometry>
                </mxCell>
                <mxCell id="41" value="" style="endArrow=classic;html=1;exitX=1;exitY=0.5;exitDx=0;exitDy=0;entryX=0.058;entryY=0.248;entryDx=0;entryDy=0;entryPerimeter=0;" parent="1" source="20" target="2" edge="1">
                    <mxGeometry width="50" height="50" relative="1" as="geometry">
                        <mxPoint x="199.99999999999994" y="254.5" as="sourcePoint"/>
                        <mxPoint x="345.9314575050761" y="413.4314575050762" as="targetPoint"/>
                    </mxGeometry>
                </mxCell>
                <mxCell id="42" value="" style="endArrow=classic;html=1;exitX=1;exitY=0.75;exitDx=0;exitDy=0;entryX=0.047;entryY=0.328;entryDx=0;entryDy=0;entryPerimeter=0;" parent="1" source="21" target="2" edge="1">
                    <mxGeometry width="50" height="50" relative="1" as="geometry">
                        <mxPoint x="209.99999999999994" y="264.5" as="sourcePoint"/>
                        <mxPoint x="355.9314575050761" y="423.4314575050762" as="targetPoint"/>
                    </mxGeometry>
                </mxCell>
                <mxCell id="43" value="" style="endArrow=classic;html=1;exitX=1;exitY=1;exitDx=0;exitDy=0;entryX=0;entryY=0.5;entryDx=0;entryDy=0;" parent="1" source="22" target="2" edge="1">
                    <mxGeometry width="50" height="50" relative="1" as="geometry">
                        <mxPoint x="219.99999999999994" y="274.5" as="sourcePoint"/>
                        <mxPoint x="365.9314575050761" y="433.4314575050762" as="targetPoint"/>
                    </mxGeometry>
                </mxCell>
                <mxCell id="44" value="" style="endArrow=classic;html=1;exitX=1;exitY=0.75;exitDx=0;exitDy=0;" parent="1" source="17" edge="1">
                    <mxGeometry width="50" height="50" relative="1" as="geometry">
                        <mxPoint x="229.99999999999994" y="284.5" as="sourcePoint"/>
                        <mxPoint x="320" y="490" as="targetPoint"/>
                    </mxGeometry>
                </mxCell>
                <mxCell id="45" value="" style="endArrow=classic;html=1;exitX=1;exitY=0.5;exitDx=0;exitDy=0;entryX=0;entryY=1;entryDx=0;entryDy=0;" parent="1" source="27" target="2" edge="1">
                    <mxGeometry width="50" height="50" relative="1" as="geometry">
                        <mxPoint x="239.99999999999994" y="329.5" as="sourcePoint"/>
                        <mxPoint x="385.9314575050761" y="488.4314575050762" as="targetPoint"/>
                    </mxGeometry>
                </mxCell>
                <mxCell id="46" value="" style="endArrow=classic;html=1;exitX=1;exitY=0;exitDx=0;exitDy=0;entryX=0;entryY=0.5;entryDx=0;entryDy=0;" parent="1" source="2" target="32" edge="1">
                    <mxGeometry width="50" height="50" relative="1" as="geometry">
                        <mxPoint x="580" y="510" as="sourcePoint"/>
                        <mxPoint x="630" y="460" as="targetPoint"/>
                    </mxGeometry>
                </mxCell>
                <mxCell id="49" value="" style="endArrow=classic;html=1;entryX=0;entryY=0.5;entryDx=0;entryDy=0;exitX=0.966;exitY=0.327;exitDx=0;exitDy=0;exitPerimeter=0;" parent="1" source="2" target="33" edge="1">
                    <mxGeometry width="50" height="50" relative="1" as="geometry">
                        <mxPoint x="450" y="500" as="sourcePoint"/>
                        <mxPoint x="500" y="450" as="targetPoint"/>
                    </mxGeometry>
                </mxCell>
                <mxCell id="50" value="" style="endArrow=classic;html=1;entryX=0;entryY=0.75;entryDx=0;entryDy=0;" parent="1" source="2" target="31" edge="1">
                    <mxGeometry width="50" height="50" relative="1" as="geometry">
                        <mxPoint x="710" y="670" as="sourcePoint"/>
                        <mxPoint x="760" y="620" as="targetPoint"/>
                    </mxGeometry>
                </mxCell>
                <mxCell id="51" value="" style="endArrow=classic;html=1;entryX=0;entryY=0.5;entryDx=0;entryDy=0;exitX=0.922;exitY=0.813;exitDx=0;exitDy=0;exitPerimeter=0;" parent="1" source="2" target="29" edge="1">
                    <mxGeometry width="50" height="50" relative="1" as="geometry">
                        <mxPoint x="710" y="670" as="sourcePoint"/>
                        <mxPoint x="760" y="620" as="targetPoint"/>
                    </mxGeometry>
                </mxCell>
                <mxCell id="52" value="" style="endArrow=classic;html=1;entryX=0;entryY=0.5;entryDx=0;entryDy=0;exitX=0.991;exitY=0.681;exitDx=0;exitDy=0;exitPerimeter=0;" parent="1" source="2" target="35" edge="1">
                    <mxGeometry width="50" height="50" relative="1" as="geometry">
                        <mxPoint x="780" y="650" as="sourcePoint"/>
                        <mxPoint x="830" y="600" as="targetPoint"/>
                    </mxGeometry>
                </mxCell>
                <mxCell id="53" value="" style="endArrow=classic;html=1;entryX=0;entryY=0.5;entryDx=0;entryDy=0;" parent="1" target="34" edge="1">
                    <mxGeometry width="50" height="50" relative="1" as="geometry">
                        <mxPoint x="470" y="460" as="sourcePoint"/>
                        <mxPoint x="950" y="570" as="targetPoint"/>
                    </mxGeometry>
                </mxCell>
            </root>
        </mxGraphModel>
    </diagram>
</mxfile>